<svg width="120" height="16" viewBox="0 0 120 16" fill="none" xmlns="http://www.w3.org/2000/svg">
<path fill-rule="evenodd" clip-rule="evenodd" d="M0.462585 4.38208L11.7828 15.7023H0.462585V4.38208Z" fill="#BBD02D"/>
<path fill-rule="evenodd" clip-rule="evenodd" d="M34.1871 13.8029C32.1075 13.8029 30.4788 12.0906 30.4788 9.9042C30.4788 7.64465 32.0204 6.00476 34.1445 6.00476C36.2705 6.00476 37.8736 7.68104 37.8736 9.9042C37.8736 12.1634 36.3232 13.8029 34.1871 13.8029ZM34.1871 4.33545C30.9928 4.33545 28.4906 6.78155 28.4906 9.9042C28.4906 13.0149 30.9739 15.4513 34.1445 15.4513C37.3504 15.4513 39.8619 13.0149 39.8619 9.9042C39.8619 6.7293 37.4224 4.33545 34.1871 4.33545Z" fill="white"/>
<path fill-rule="evenodd" clip-rule="evenodd" d="M43.9088 9.9042C43.9088 7.68104 45.421 6.00476 47.4259 6.00476C48.8115 6.00476 49.6742 6.62983 50.3287 7.27503L51.5297 5.97844C50.4204 4.84286 49.1552 4.33545 47.4471 4.33545C44.3485 4.33545 41.921 6.78155 41.921 9.9042C41.921 13.0149 44.3392 15.4513 47.4259 15.4513C49.572 15.4513 50.7505 14.5576 51.6082 13.65L50.4622 12.5198C49.5321 13.4062 48.6296 13.8029 47.5532 13.8029C45.4759 13.8029 43.9088 12.127 43.9088 9.9042Z" fill="white"/>
<path fill-rule="evenodd" clip-rule="evenodd" d="M65.9226 4.56836H63.7973L68.1674 15.282H70.091L74.4406 4.56836H72.378L69.1389 13.3573L65.9226 4.56836Z" fill="white"/>
<path fill-rule="evenodd" clip-rule="evenodd" d="M77.1085 15.1969H79.0963V4.56836H77.1085V15.1969Z" fill="white"/>
<path fill-rule="evenodd" clip-rule="evenodd" d="M102.087 13.8029C100.007 13.8029 98.3784 12.0906 98.3784 9.9042C98.3784 7.64465 99.9199 6.00476 102.044 6.00476C104.17 6.00476 105.773 7.68104 105.773 9.9042C105.773 12.1634 104.223 13.8029 102.087 13.8029ZM102.087 4.33545C98.8924 4.33545 96.3901 6.78155 96.3901 9.9042C96.3901 13.0149 98.8734 15.4513 102.044 15.4513C105.25 15.4513 107.762 13.0149 107.762 9.9042C107.762 6.7293 105.322 4.33545 102.087 4.33545Z" fill="white"/>
<path fill-rule="evenodd" clip-rule="evenodd" d="M24.3275 10.2725C24.1518 12.3564 22.6424 13.8027 20.6569 13.8027C18.5773 13.8027 16.9482 12.0905 16.9482 9.90407C16.9482 7.64453 18.4898 6.00463 20.6139 6.00463C22.5893 6.00463 24.1507 7.48778 24.3268 9.53097L24.3275 10.2725ZM20.6569 4.33532C17.4626 4.33532 14.9604 6.78142 14.9604 9.90407C14.9604 13.0147 17.4436 15.4511 20.6139 15.4511C21.804 15.4511 22.9323 15.1191 23.8766 14.4909L24.3275 14.1906V15.4144H26.4079V0.150635H24.3275V5.57037L23.8774 5.2739C22.9462 4.65967 21.8323 4.33532 20.6569 4.33532Z" fill="white"/>
<path fill-rule="evenodd" clip-rule="evenodd" d="M114.566 4.59918C113.735 4.59918 112.92 4.80392 112.208 5.19019L111.779 5.42358V4.26245H109.791L109.789 9.23168L109.789 15.3899H111.781V9.1744C111.829 7.50006 112.96 6.3339 114.531 6.3339C115.308 6.3339 116.024 6.63734 116.546 7.1881C117.067 7.73693 117.354 8.49011 117.353 9.30871V15.3899H119.332V9.27813C119.332 6.65476 117.239 4.59918 114.566 4.59918Z" fill="white"/>
<path fill-rule="evenodd" clip-rule="evenodd" d="M92.2356 15.1969H94.223V4.56836H92.2356V15.1969Z" fill="white"/>
<path fill-rule="evenodd" clip-rule="evenodd" d="M61.6895 5.97844C60.5802 4.84286 59.3149 4.33545 57.6069 4.33545C55.465 4.36409 53.9087 5.71603 53.9087 7.54983C53.9087 8.44312 54.2505 9.12935 54.9537 9.64837C55.5893 10.0915 56.3959 10.3752 57.1022 10.5951C57.1363 10.6071 57.168 10.616 57.1994 10.6253C57.245 10.638 57.2853 10.6496 57.3201 10.6613L57.3863 10.6829C58.6992 11.1125 59.832 11.4833 59.832 12.444C59.832 12.8585 59.6045 13.8242 57.4939 13.8358C56.4059 13.8358 55.3965 13.3938 54.4703 12.5218L53.3243 13.6515C54.5291 14.9137 55.7971 15.454 57.538 15.454L57.9038 15.4463C60.0507 15.4168 61.6082 14.0649 61.6082 12.2315C61.6082 11.3405 61.2684 10.6558 60.5694 10.138C59.9272 9.6894 59.121 9.4057 58.4151 9.18624C58.3849 9.17541 58.357 9.16766 58.3291 9.15992L58.2901 9.14831L58.1263 9.09684C56.8158 8.66761 55.6849 8.29721 55.6849 7.33734C55.6849 6.53423 56.4388 6.01211 57.6054 6.0067C58.9767 6.0067 59.8355 6.63061 60.4885 7.27503L61.6895 5.97844Z" fill="white"/>
<path fill-rule="evenodd" clip-rule="evenodd" d="M89.75 5.97844C88.6408 4.84286 87.3755 4.33545 85.6675 4.33545C83.5256 4.36409 81.9693 5.71603 81.9693 7.54983C81.9693 8.44312 82.3111 9.12935 83.0143 9.64837C83.6499 10.0915 84.4565 10.3752 85.1628 10.5951C85.1969 10.6071 85.2286 10.616 85.26 10.6253C85.3056 10.638 85.3459 10.6496 85.3807 10.6613L85.4469 10.6829C86.7598 11.1125 87.8926 11.4833 87.8926 12.444C87.8926 12.8585 87.665 13.8242 85.5545 13.8358C84.4665 13.8358 83.4571 13.3938 82.5309 12.5218L81.3849 13.6515C82.5898 14.9137 83.8577 15.454 85.5986 15.454L85.9644 15.4463C88.1113 15.4168 89.6688 14.0649 89.6688 12.2315C89.6688 11.3405 89.3289 10.6558 88.6299 10.138C87.9878 9.6894 87.1816 9.4057 86.4757 9.18624C86.4455 9.17541 86.4176 9.16766 86.3897 9.15992L86.3507 9.14831L86.1869 9.09684C84.8764 8.66761 83.7455 8.29721 83.7455 7.33734C83.7455 6.53423 84.4994 6.01211 85.666 6.0067C87.0373 6.0067 87.8961 6.63061 88.5491 7.27503L89.75 5.97844Z" fill="white"/>
<path fill-rule="evenodd" clip-rule="evenodd" d="M78.1012 2.23102C78.6477 2.23102 79.092 1.7867 79.092 1.2402C79.092 0.69408 78.6477 0.249756 78.1012 0.249756C77.5551 0.249756 77.1104 0.69408 77.1104 1.2402C77.1104 1.7867 77.5551 2.23102 78.1012 2.23102Z" fill="white"/>
<path fill-rule="evenodd" clip-rule="evenodd" d="M93.2684 2.23102C93.8149 2.23102 94.2592 1.7867 94.2592 1.2402C94.2592 0.69408 93.8149 0.249756 93.2684 0.249756C92.7222 0.249756 92.2775 0.69408 92.2775 1.2402C92.2775 1.7867 92.7222 2.23102 93.2684 2.23102Z" fill="white"/>
</svg>
