<svg width="252" height="135" viewBox="0 0 252 135" fill="none" xmlns="http://www.w3.org/2000/svg">
<path fill-rule="evenodd" clip-rule="evenodd" d="M86.391 41.564H102.033V46.649H94.591V82.571H86.391V41.564Z" fill="white"/>
<path fill-rule="evenodd" clip-rule="evenodd" d="M101.809 82.571H109.833L110.594 71.672H114.463L115.225 82.571H123.25L118.973 41.564H106.085L101.809 82.571ZM110.888 67.165L112.294 46.647H112.765L114.169 67.165H110.888Z" fill="white"/>
<path fill-rule="evenodd" clip-rule="evenodd" d="M134.031 68.216V75.939C134.031 76.992 134.85 77.287 135.319 77.287C136.083 77.287 136.608 76.643 136.608 75.939V66.401C136.608 65.112 136.373 63.708 133.327 63.708H129.99V59.197H133.444C135.788 59.197 136.608 58.669 136.608 56.15V47.997C136.608 47.293 136.083 46.649 135.319 46.649C134.85 46.649 134.031 46.943 134.031 47.997V54.685H125.829V48.886C125.829 46.014 126.181 41.564 131.921 41.564H138.721C144.466 41.564 144.814 46.014 144.814 48.886V55.448C144.814 59.899 141.71 61.129 139.25 61.012V61.422C144.756 61.306 144.814 65.523 144.814 66.987V75.248C144.814 78.117 144.466 82.571 138.721 82.571H131.921C126.181 82.571 125.829 78.117 125.829 75.248V68.216H134.031Z" fill="white"/>
<path fill-rule="evenodd" clip-rule="evenodd" d="M149.125 41.564H168.108V82.571H159.91V46.649H157.329V82.571H149.125V41.564Z" fill="white"/>
<path fill-rule="evenodd" clip-rule="evenodd" d="M172.903 82.571H181.105V68.627H185.791C191.532 68.627 191.884 64.174 191.884 61.306V48.886C191.884 46.014 191.532 41.564 185.791 41.564H172.903V82.571ZM181.105 64.118V46.649H182.159C183.038 46.649 183.684 47.41 183.684 48.697V62.067C183.684 63.356 183.038 64.118 182.159 64.118H181.105Z" fill="white"/>
<path fill-rule="evenodd" clip-rule="evenodd" d="M195.868 75.248C195.868 78.117 196.222 82.571 201.961 82.571H208.757C214.499 82.571 214.851 78.117 214.851 75.248V48.886C214.851 46.014 214.499 41.564 208.757 41.564H201.961C196.222 41.564 195.868 46.014 195.868 48.886V75.248ZM206.648 75.939C206.648 76.643 206.123 77.287 205.361 77.287C204.891 77.287 204.069 76.992 204.069 75.939V47.997C204.069 46.943 204.891 46.649 205.361 46.649C206.123 46.649 206.648 47.293 206.648 47.997V75.939Z" fill="white"/>
<path fill-rule="evenodd" clip-rule="evenodd" d="M240.4 41.564H251.063V82.571H242.86V56.854H242.566L238.35 82.571H231.787L227.57 56.854H227.275V82.571H219.075V41.564H229.735L235.066 70.385L240.4 41.564Z" fill="white"/>
<path fill-rule="evenodd" clip-rule="evenodd" d="M73.915 45.61C73.812 50.373 73.246 55.403 72.517 58.399C72.779 53.224 72.157 45.924 70.966 40.22C69.774 34.514 66.402 25.005 63.716 20.585C61.231 24.786 58.172 33.023 56.564 40.167C54.953 47.323 54.906 55.967 54.906 58.565C54.482 56.372 53.41 48.584 53.714 40.742C53.969 34.273 55.48 27.635 56.309 24.579C59.469 14.364 63.046 7.847 63.716 6.819C64.386 7.847 68.893 15.883 71.228 24.321C73.55 32.767 74.019 40.843 73.915 45.61ZM63.771 82.058C62.367 79.421 60.188 74.399 59.983 66.643C59.929 59.135 62.933 52.694 63.812 51.359C64.592 52.694 67.187 58.305 67.493 65.965C67.702 73.467 65.217 79.367 63.771 82.058ZM74.742 24.422C71.899 11.943 64.755 1.798 63.771 0.136002C62.208 2.466 56.508 11.419 53.613 21.369C50.452 32.459 49.991 42.291 51.079 51.984C52.164 61.662 56.258 71.611 56.258 71.611C58.432 76.833 61.692 82.421 63.812 85.165C66.924 81.121 74.076 69.071 76.299 53.326C77.54 44.576 77.594 36.911 74.742 24.422Z" fill="white"/>
<path fill-rule="evenodd" clip-rule="evenodd" d="M68.607 88.073H46.926V102.62C46.947 102.598 46.962 102.578 46.983 102.559C52.092 97.452 60.369 97.452 65.477 102.559C70.584 107.67 70.584 115.951 65.477 121.054C65.457 121.075 65.435 121.096 65.414 121.117C65.414 121.117 65.414 121.123 65.409 121.123C65.392 121.141 65.36 121.171 65.335 121.19C60.245 126.247 53.585 128.782 46.926 128.782C40.243 128.782 33.555 126.228 28.451 121.135C19.466 112.143 18.397 98.229 25.253 88.073C26.177 86.699 27.239 85.394 28.451 84.188C33.555 79.084 40.243 76.536 46.926 76.536V41.564C21.24 41.564 0.403999 62.398 0.403999 88.073C0.403999 113.765 21.24 134.595 46.926 134.595C60.331 134.595 72.395 128.925 80.879 119.867V88.073H68.607Z" fill="white"/>
<path fill-rule="evenodd" clip-rule="evenodd" d="M93.908 123.833C93.908 121.974 93.289 120.459 91.152 120.459C88.185 120.459 88.162 124.643 88.162 126.672C88.162 129.791 88.333 133.42 91.152 133.42C93.373 133.42 93.736 131.585 93.908 129.043H95.615C95.423 132.587 94.548 134.958 91.28 134.958C86.754 134.958 86.391 130.345 86.391 126.716C86.391 123.256 87.031 118.92 91.238 118.92C94.141 118.92 95.615 121.078 95.615 123.833H93.908Z" fill="white"/>
<path fill-rule="evenodd" clip-rule="evenodd" d="M116.898 120.459H116.857L114.828 128.637H118.885L116.898 120.459ZM115.788 119.22H118.053L122.365 134.595H120.487L119.269 130.174H114.421L113.29 134.595H111.411L115.788 119.22Z" fill="white"/>
<path fill-rule="evenodd" clip-rule="evenodd" d="M148.348 119.22V134.595H146.638V120.758H141.471V126.844C141.471 130.282 141.407 134.788 138.417 134.788C138.098 134.788 137.734 134.745 137.392 134.66V133.143C137.627 133.229 137.862 133.251 138.054 133.251C139.635 133.251 139.764 130.858 139.764 125.925V119.22H148.348Z" fill="white"/>
<path fill-rule="evenodd" clip-rule="evenodd" d="M170.143 120.459H170.102L168.072 128.637H172.129L170.143 120.459ZM169.033 119.22H171.297L175.61 134.595H173.731L172.513 130.174H167.666L166.535 134.595H164.656L169.033 119.22Z" fill="white"/>
<path fill-rule="evenodd" clip-rule="evenodd" d="M193.627 133.058H196.167C198.004 133.058 198.836 132.183 198.836 130.174C198.836 128.103 197.769 127.293 196.018 127.293H193.627V133.058ZM193.627 125.754H195.741C197.449 125.754 198.411 125.135 198.411 123.17C198.411 121.42 197.47 120.758 195.911 120.758H193.627V125.754ZM191.918 119.22H195.954C198.836 119.22 200.182 120.758 200.182 123.064C200.182 124.772 199.392 126.033 197.94 126.417V126.46C199.392 126.651 200.609 128.06 200.609 130.197C200.609 133.058 199.03 134.595 196.167 134.595H191.918V119.22Z" fill="white"/>
<path fill-rule="evenodd" clip-rule="evenodd" d="M221.893 120.459H221.852L219.822 128.637H223.879L221.893 120.459ZM220.782 119.22H223.047L227.359 134.595H225.481L224.263 130.174H219.416L218.284 134.595H216.405L220.782 119.22Z" fill="white"/>
<path fill-rule="evenodd" clip-rule="evenodd" d="M247.09 134.595H245.381V120.758H241.389V119.22H251.063V120.758H247.09V134.595Z" fill="white"/>
<path fill-rule="evenodd" clip-rule="evenodd" d="M86.391 113.708H251.063V88.081H86.391V113.708ZM95.218 99.139H97.639V93.208H101.344V108.582H97.639V102.051H95.218V108.582H91.515V93.208H95.218V99.139ZM120.438 93.208H111.829V108.582H120.438V105.67H115.534V102.051H119.924V99.139H115.534V96.12H120.438V93.208ZM139.726 104.171H140.475C141.782 104.171 142.295 103.037 142.295 100.809C142.295 98.626 141.823 97.447 140.517 97.447H139.726V104.171ZM136.149 97.447H135.377C134.073 97.447 133.58 98.626 133.58 100.809C133.58 103.037 134.114 104.171 135.42 104.171H136.149V97.447ZM139.726 93.208V94.685H140.818C143.643 94.685 145.699 96.484 145.699 100.809C145.699 105.199 143.643 106.934 140.818 106.934H139.726V108.582H136.149V106.934H135.057C132.252 106.934 130.174 105.199 130.174 100.809C130.174 96.484 132.252 94.685 135.057 94.685H136.149V93.208H139.726ZM157.512 108.582H160.915V96.12H163.635V93.208H154.6V96.12H157.512V108.582ZM173.438 93.208H182.046V96.12H177.143V99.139H181.532V102.051H177.143V105.67H182.046V108.582H173.438V93.208ZM196.643 97.726L194.866 93.208H191.289L194.544 100.809L191.141 108.582H194.715L196.643 103.893L198.249 108.582H202.147L198.742 100.809L201.997 93.208H198.42L196.643 97.726ZM215.417 93.208V97.02C215.417 97.975 215.267 99.1758 215.121 100.345V100.345C215.008 101.246 214.897 102.129 214.86 102.865H214.883L218.008 93.208H221.541V108.582H218.008V105.006C218.008 103.94 218.223 102.515 218.42 101.202C218.529 100.484 218.632 99.7997 218.692 99.225H218.672L215.481 108.582H211.884V93.208H215.417ZM238.42 99.439L237.221 93.208H232.061V108.582H235.594V103.166C235.594 101.087 235.466 97.554 235.402 96.484H235.423L237.714 108.582H240.283L242.574 96.484H242.597C242.51 97.769 242.403 101.71 242.403 103.187V108.582H245.937V93.208H240.776L239.577 99.439C239.439 100.138 239.32 101.364 239.207 102.52C239.144 103.17 239.082 103.798 239.021 104.299H238.977C238.92 103.811 238.867 103.246 238.813 102.662C238.706 101.506 238.591 100.278 238.42 99.439Z" fill="white"/>
</svg>
