<svg width="16" height="16" viewBox="0 0 16 16" fill="none" xmlns="http://www.w3.org/2000/svg">
<rect x="0.5" y="0.5" width="15" height="15" rx="7.5" fill="#BBD02D" stroke="white"/>
<rect x="7.28194" y="4.5" width="0.756382" height="6.1351" fill="#271F47"/>
<path fill-rule="evenodd" clip-rule="evenodd" d="M5.72712 10.6351C6.95713 10.6351 7.95425 9.63798 7.95425 8.40797C7.95425 7.17796 6.95713 6.18085 5.72712 6.18085C4.49712 6.18085 3.5 7.17796 3.5 8.40797C3.5 9.63798 4.49712 10.6351 5.72712 10.6351ZM5.76917 9.96274C6.60465 9.96274 7.28194 9.28545 7.28194 8.44998C7.28194 7.6145 6.60465 6.93722 5.76917 6.93722C4.9337 6.93722 4.25641 7.6145 4.25641 8.44998C4.25641 9.28545 4.9337 9.96274 5.76917 9.96274Z" fill="#271F47"/>
<path fill-rule="evenodd" clip-rule="evenodd" d="M9.55107 6.26489H8.6266L10.3915 10.6351H10.3915H11.316H11.316L13.0809 6.26489H12.1564L10.8537 9.49057L9.55107 6.26489Z" fill="#271F47"/>
</svg>
